HIERARCHY
ROOT joint_0
{
	OFFSET 0.000000 0.000000 0.000000
	CHANNELS 6 Xposition Yposition Zposition Zrotation Yrotation Xrotation 
	JOINT joint_1
	{
		OFFSET 6.579712 -2.778931 100.531982
		CHANNELS 3 Zrotation Yrotation Xrotation
		JOINT joint_2
		{
			OFFSET -3.313232 -1.302856 91.974976
			CHANNELS 3 Zrotation Yrotation Xrotation
			JOINT joint_3
			{
				OFFSET -3.421509 -1.641846 91.864014
				CHANNELS 3 Zrotation Yrotation Xrotation
				JOINT joint_4
				{
					OFFSET 7.697388 -4.642578 123.278931
					CHANNELS 3 Zrotation Yrotation Xrotation
					JOINT joint_5
					{
						OFFSET 24.842529 -5.941528 79.695068
						CHANNELS 3 Zrotation Yrotation Xrotation
						End Site
						{
							OFFSET 0.000000 0.000000 0.000000
						}
					}
				}
				JOINT joint_6
				{
					OFFSET -0.159668 -29.112976 68.364014
					CHANNELS 3 Zrotation Yrotation Xrotation
					JOINT joint_7
					{
						OFFSET -18.356079 -115.987061 -20.069092
						CHANNELS 3 Zrotation Yrotation Xrotation
						JOINT joint_8
						{
							OFFSET 31.719482 -11.733276 -267.170898
							CHANNELS 3 Zrotation Yrotation Xrotation
							JOINT joint_9
							{
								OFFSET 29.329956 -5.879517 -234.654053
								CHANNELS 3 Zrotation Yrotation Xrotation
								End Site
								{
									OFFSET 0.000000 0.000000 0.000000
								}
							}
						}
					}
				}
				JOINT joint_10
				{
					OFFSET 8.802979 23.897949 69.798950
					CHANNELS 3 Zrotation Yrotation Xrotation
					JOINT joint_11
					{
						OFFSET 21.159058 115.524292 -19.981934
						CHANNELS 3 Zrotation Yrotation Xrotation
						JOINT joint_12
						{
							OFFSET 18.809204 5.403442 -268.593018
							CHANNELS 3 Zrotation Yrotation Xrotation
							JOINT joint_13
							{
								OFFSET 20.807861 0.421265 -235.639038
								CHANNELS 3 Zrotation Yrotation Xrotation
								End Site
								{
									OFFSET 0.000000 0.000000 0.000000
								}
							}
						}
					}
				}
			}
		}
	}
	JOINT joint_14
	{
		OFFSET -9.713379 -79.513916 -99.348022
		CHANNELS 3 Zrotation Yrotation Xrotation
		JOINT joint_15
		{
			OFFSET -40.607788 -6.518372 -502.938019
			CHANNELS 3 Zrotation Yrotation Xrotation
			JOINT joint_16
			{
				OFFSET -19.807617 -7.437378 -399.590012
				CHANNELS 3 Zrotation Yrotation Xrotation
				JOINT joint_17
				{
					OFFSET 171.701660 -44.751282 -77.782000
					CHANNELS 3 Zrotation Yrotation Xrotation
					End Site
					{
						OFFSET 0.000000 0.000000 0.000000
					}
				}
			}
		}
	}
	JOINT joint_18
	{
		OFFSET 17.854858 79.618652 -98.128052
		CHANNELS 3 Zrotation Yrotation Xrotation
		JOINT joint_19
		{
			OFFSET -24.848877 16.861816 -503.722992
			CHANNELS 3 Zrotation Yrotation Xrotation
			JOINT joint_20
			{
				OFFSET -30.162476 14.470093 -398.750008
				CHANNELS 3 Zrotation Yrotation Xrotation
				JOINT joint_21
				{
					OFFSET 176.096680 -10.987549 -80.021000
					CHANNELS 3 Zrotation Yrotation Xrotation
					End Site
					{
						OFFSET 0.000000 0.000000 0.000000
					}
				}
			}
		}
	}
}
MOTION
Frames: 10
Frame Time: 0.016667
-1810.553833 900.415466 1096.796021 -2.870727 0.155173 -0.871514 -0.399365 -1.640753 0.843751 -0.414485 0.253232 -0.230289 -0.411067 -0.294972 0.123055 0.298366 0.552145 -0.822661 0.000000 0.000000 0.000000 1.261607 1.757914 0.695904 -0.141755 2.154576 -0.276723 -0.056669 -1.040893 -0.680844 0.000000 0.000000 0.000000 1.313079 1.187246 0.606510 -0.026856 1.413334 -1.889521 0.216824 -1.433226 2.425604 0.000000 0.000000 0.000000 1.030740 0.821448 -0.889086 0.906635 -2.352547 1.138947 0.897444 -0.014539 0.402266 0.000000 0.000000 0.000000 2.598098 2.042984 1.597962 2.595528 -2.028310 -1.087777 2.476831 -0.909319 1.067791 0.000000 0.000000 0.000000 
-1810.633545 900.469910 1096.791016 -2.879104 0.141272 -0.870145 -0.400992 -1.642106 0.845522 -0.416163 0.252235 -0.229332 -0.412769 -0.294729 0.122760 0.298156 0.552424 -0.821916 0.000000 0.000000 0.000000 1.257072 1.764056 0.701904 -0.142455 2.161559 -0.280311 -0.056724 -1.040668 -0.681379 0.000000 0.000000 0.000000 1.314639 1.191286 0.597833 -0.026805 1.415722 -1.890610 0.216902 -1.434861 2.426235 0.000000 0.000000 0.000000 1.033782 0.827373 -0.895722 0.908847 -2.346413 1.142393 0.899690 -0.008261 0.404919 0.000000 0.000000 0.000000 2.601724 2.049104 1.593658 2.599049 -2.017582 -1.087151 2.479830 -0.910568 1.069083 0.000000 0.000000 0.000000 
-1810.716064 900.522034 1096.786987 -2.888100 0.127926 -0.868853 -0.401707 -1.642719 0.848324 -0.417022 0.251793 -0.230047 -0.413545 -0.292683 0.123064 0.297656 0.550397 -0.820799 0.000000 0.000000 0.000000 1.250718 1.768525 0.709411 -0.143256 2.167031 -0.285297 -0.056782 -1.040693 -0.681999 0.000000 0.000000 0.000000 1.313329 1.192719 0.588158 -0.026741 1.415568 -1.890344 0.216790 -1.437300 2.424795 0.000000 0.000000 0.000000 1.037202 0.832699 -0.902318 0.911425 -2.341010 1.145996 0.902238 -0.000334 0.408138 0.000000 0.000000 0.000000 2.605475 2.054235 1.589576 2.602750 -2.006339 -1.086434 2.482991 -0.911783 1.070451 0.000000 0.000000 0.000000 
-1810.800415 900.572998 1096.782959 -2.896493 0.115018 -0.867768 -0.403542 -1.642190 0.852598 -0.419091 0.250484 -0.231092 -0.415494 -0.291071 0.123821 0.297692 0.547606 -0.821573 0.000000 0.000000 0.000000 1.247821 1.772828 0.715326 -0.144022 2.172607 -0.289825 -0.056866 -1.041628 -0.683025 0.000000 0.000000 0.000000 1.315664 1.193264 0.579044 -0.026810 1.414290 -1.891782 0.216643 -1.440625 2.422986 0.000000 0.000000 0.000000 1.040321 0.837176 -0.908818 0.913645 -2.334867 1.150185 0.904512 0.006476 0.410941 0.000000 0.000000 0.000000 2.609006 2.058962 1.585809 2.606240 -1.995788 -1.085772 2.485996 -0.912199 1.071798 0.000000 0.000000 0.000000 
-1810.885132 900.626953 1096.781006 -2.905472 0.101676 -0.867776 -0.407198 -1.640636 0.863050 -0.423337 0.249164 -0.235316 -0.419443 -0.289927 0.126332 0.298127 0.543055 -0.824039 0.000000 0.000000 0.000000 1.251788 1.776518 0.719631 -0.144952 2.178667 -0.295235 -0.057043 -1.044735 -0.685305 0.000000 0.000000 0.000000 1.325408 1.193160 0.568888 -0.027048 1.411144 -1.894770 0.216393 -1.444011 2.420080 0.000000 0.000000 0.000000 1.043199 0.841225 -0.914788 0.915557 -2.326999 1.155395 0.906592 0.012397 0.413426 0.000000 0.000000 0.000000 2.612797 2.065137 1.583275 2.609957 -1.987580 -1.085669 2.489322 -0.910860 1.073399 0.000000 0.000000 0.000000 
-1810.969849 900.680908 1096.781006 -2.914853 0.089640 -0.867969 -0.411603 -1.641010 0.875063 -0.428357 0.249035 -0.239740 -0.424144 -0.288611 0.129751 0.299589 0.537113 -0.830108 0.000000 0.000000 0.000000 1.258404 1.779883 0.722305 -0.145883 2.184582 -0.300493 -0.057320 -1.049162 -0.688692 0.000000 0.000000 0.000000 1.338296 1.192116 0.557554 -0.027352 1.406380 -1.898264 0.216106 -1.447796 2.416799 0.000000 0.000000 0.000000 1.046340 0.843470 -0.920907 0.917642 -2.318520 1.161183 0.908888 0.018125 0.415957 0.000000 0.000000 0.000000 2.616667 2.070147 1.580837 2.613773 -1.979951 -1.085515 2.492789 -0.908904 1.075103 0.000000 0.000000 0.000000 
-1811.056763 900.726562 1096.781982 -2.923373 0.078854 -0.867441 -0.413409 -1.641457 0.881907 -0.430502 0.248958 -0.241822 -0.426135 -0.288476 0.131654 0.299979 0.533854 -0.832124 0.000000 0.000000 0.000000 1.257145 1.784259 0.726020 -0.146664 2.190127 -0.304763 -0.057545 -1.052690 -0.691442 0.000000 0.000000 0.000000 1.342762 1.190060 0.549305 -0.027598 1.402548 -1.901279 0.215649 -1.454333 2.411688 0.000000 0.000000 0.000000 1.049121 0.844354 -0.927366 0.919305 -2.310074 1.167199 0.910771 0.024191 0.418390 0.000000 0.000000 0.000000 2.620165 2.073400 1.577976 2.617260 -1.972101 -1.085364 2.495950 -0.906262 1.076711 0.000000 0.000000 0.000000 
-1811.144531 900.761108 1096.785034 -2.930435 0.071030 -0.865672 -0.412287 -1.643916 0.881559 -0.429377 0.248737 -0.242568 -0.424962 -0.288310 0.132021 0.299052 0.530236 -0.830024 0.000000 0.000000 0.000000 1.245166 1.789630 0.730916 -0.146965 2.194409 -0.305826 -0.057795 -1.053597 -0.693789 0.000000 0.000000 0.000000 1.336873 1.186875 0.547966 -0.027868 1.400962 -1.906046 0.214933 -1.466872 2.403799 0.000000 0.000000 0.000000 1.051990 0.842287 -0.934872 0.920899 -2.302004 1.173733 0.912589 0.030839 0.420945 0.000000 0.000000 0.000000 2.622982 2.072591 1.573748 2.620119 -1.962890 -1.084130 2.498526 -0.903737 1.078047 0.000000 0.000000 0.000000 
-1811.234619 900.787415 1096.788940 -2.936263 0.064564 -0.863055 -0.408661 -1.646077 0.875670 -0.425439 0.247821 -0.240094 -0.421207 -0.289271 0.129587 0.297056 0.528348 -0.824101 0.000000 0.000000 0.000000 1.224615 1.796106 0.737282 -0.147038 2.198248 -0.305249 -0.058100 -1.053531 -0.696350 0.000000 0.000000 0.000000 1.322592 1.182765 0.549971 -0.028060 1.400410 -1.910162 0.214064 -1.482221 2.394264 0.000000 0.000000 0.000000 1.054576 0.838662 -0.942813 0.922135 -2.293737 1.180497 0.914076 0.037337 0.423312 0.000000 0.000000 0.000000 2.625317 2.069813 1.568932 2.622545 -1.953153 -1.082842 2.500663 -0.901289 1.079179 0.000000 0.000000 0.000000 
-1811.322876 900.806824 1096.790039 -2.943213 0.058490 -0.860492 -0.404693 -1.650665 0.868236 -0.421019 0.248901 -0.236717 -0.416998 -0.290092 0.128213 0.296672 0.527908 -0.822977 0.000000 0.000000 0.000000 1.206390 1.802217 0.743426 -0.147289 2.202334 -0.306030 -0.058243 -1.053520 -0.697595 0.000000 0.000000 0.000000 1.310000 1.178669 0.547341 -0.027965 1.397932 -1.909667 0.213454 -1.495049 2.387568 0.000000 0.000000 0.000000 1.057297 0.834704 -0.949934 0.923639 -2.285706 1.186426 0.915769 0.044210 0.425870 0.000000 0.000000 0.000000 2.627892 2.066900 1.565258 2.625339 -1.943454 -1.082873 2.503056 -0.899103 1.080411 0.000000 0.000000 0.000000 
